<svg width="235" height="15" viewBox="0 0 235 15" fill="none" xmlns="http://www.w3.org/2000/svg">
<path d="M0 8H50H100" stroke="white"/>
<path d="M117.493 1.09091H113.26C113.179 1.09091 113.151 1.06364 113.151 0.981818V0H110V4.09091C110 4.21364 110.068 4.26818 110.203 4.26818H111.677L115.505 15H117.493H119.495L123.309 4.26818H124.797C124.932 4.26818 125 4.21364 125 4.09091V0H121.849V0.981818C121.849 1.06364 121.808 1.09091 121.727 1.09091H117.493ZM117.493 10.8545C117.412 10.8545 117.344 10.8 117.317 10.7045L115.126 4.52727C115.099 4.45909 115.099 4.40455 115.14 4.35C115.18 4.29545 115.234 4.26818 115.302 4.26818H117.493H119.698C119.766 4.26818 119.806 4.29545 119.847 4.35C119.887 4.40455 119.901 4.45909 119.874 4.52727L117.683 10.7045C117.656 10.8 117.588 10.8545 117.493 10.8545Z" fill="white"/>
<path d="M135 8H185H235" stroke="white"/>
</svg>
