<svg width="40" height="40" viewBox="0 0 40 40" fill="none" xmlns="http://www.w3.org/2000/svg">
<path d="M34.8409 27.6277C34.8046 27.5503 34.7707 27.486 34.7393 27.4346C34.2188 26.5073 33.2241 25.3692 31.7559 24.0199L31.7249 23.989L31.7093 23.9738L31.6936 23.9583H31.6779C31.0115 23.33 30.5895 22.9075 30.4128 22.6912C30.0895 22.2792 30.0171 21.8622 30.1938 21.4396C30.3186 21.1203 30.7876 20.4461 31.5996 19.4159C32.0267 18.8699 32.3649 18.4324 32.6147 18.1027C34.4164 15.7336 35.1974 14.2197 34.9578 13.5605L34.8648 13.4064C34.8022 13.3136 34.6408 13.2288 34.3808 13.1514C34.1202 13.0742 33.787 13.0614 33.3808 13.1129L28.8825 13.1436C28.8096 13.1181 28.7055 13.1205 28.57 13.1514C28.4346 13.1824 28.3668 13.1979 28.3668 13.1979L28.2885 13.2366L28.2264 13.2831C28.1743 13.3138 28.117 13.3679 28.0545 13.4451C27.9923 13.5221 27.9403 13.6125 27.8987 13.7155C27.4089 14.9618 26.8521 16.1205 26.2272 17.1917C25.8419 17.8304 25.488 18.3839 25.1648 18.8526C24.8421 19.3211 24.5714 19.6663 24.3529 19.8875C24.134 20.109 23.9365 20.2865 23.7592 20.4205C23.5821 20.5546 23.4469 20.6113 23.3533 20.5905C23.2595 20.5698 23.1711 20.5492 23.0875 20.5287C22.9418 20.4359 22.8246 20.3098 22.7362 20.1502C22.6475 19.9905 22.5877 19.7896 22.5565 19.5475C22.5254 19.3053 22.507 19.097 22.5018 18.9218C22.4969 18.7469 22.4992 18.4994 22.5097 18.1801C22.5206 17.8607 22.5254 17.6446 22.5254 17.5313C22.5254 17.1398 22.5331 16.715 22.5486 16.2566C22.5644 15.7983 22.5771 15.4351 22.5878 15.1676C22.5984 14.8998 22.6033 14.6164 22.6033 14.3177C22.6033 14.019 22.585 13.7848 22.5486 13.6147C22.5127 13.4449 22.4576 13.2801 22.385 13.1203C22.312 12.9607 22.2051 12.8372 22.0648 12.7495C21.9243 12.662 21.7496 12.5925 21.5416 12.5409C20.9896 12.4173 20.2868 12.3505 19.4327 12.3401C17.496 12.3195 16.2515 12.4432 15.6996 12.711C15.481 12.8242 15.2831 12.9788 15.1062 13.1744C14.9187 13.401 14.8925 13.5247 15.0279 13.5451C15.6528 13.6377 16.0951 13.8592 16.3555 14.2093L16.4493 14.3949C16.5223 14.5288 16.5952 14.7658 16.6681 15.1056C16.7409 15.4455 16.7879 15.8214 16.8086 16.2332C16.8606 16.9852 16.8606 17.6289 16.8086 18.1645C16.7565 18.7002 16.7072 19.1172 16.6602 19.4159C16.6132 19.7147 16.543 19.9567 16.4493 20.142C16.3555 20.3274 16.2931 20.4407 16.2618 20.4819C16.2305 20.523 16.2045 20.5489 16.1838 20.5591C16.0485 20.6104 15.9077 20.6365 15.762 20.6365C15.6161 20.6365 15.4392 20.5643 15.231 20.4201C15.0228 20.2758 14.8067 20.0776 14.5828 19.8253C14.3589 19.5728 14.1064 19.2201 13.8251 18.7669C13.5441 18.3138 13.2525 17.7782 12.9505 17.1602L12.7006 16.712C12.5444 16.4237 12.3311 16.0039 12.0603 15.453C11.7894 14.9018 11.5499 14.3687 11.3418 13.8537C11.2586 13.6374 11.1336 13.4727 10.967 13.3594L10.8888 13.3129C10.8368 13.2718 10.7534 13.2281 10.6389 13.1816C10.5243 13.1351 10.4047 13.1018 10.2797 13.0813L5.99986 13.112C5.56251 13.112 5.26577 13.21 5.10953 13.4057L5.04699 13.4983C5.01576 13.5499 5 13.6323 5 13.7456C5 13.859 5.03124 13.998 5.09377 14.1627C5.71854 15.6151 6.39797 17.0158 7.13205 18.3651C7.86613 19.7144 8.50404 20.8013 9.04538 21.6248C9.58683 22.4489 10.1387 23.2266 10.7011 23.9577C11.2634 24.6891 11.6357 25.1577 11.8178 25.3636C12.0001 25.5699 12.1434 25.7241 12.2475 25.8271L12.638 26.1979C12.888 26.4451 13.2549 26.7412 13.7392 27.0862C14.2235 27.4314 14.7597 27.7712 15.348 28.1062C15.9365 28.4407 16.6211 28.7137 17.4021 28.9247C18.1831 29.1361 18.9432 29.2209 19.6826 29.18H21.4789C21.8432 29.1488 22.1192 29.0355 22.3068 28.84L22.369 28.7625C22.4108 28.701 22.4499 28.6055 22.486 28.477C22.5225 28.3483 22.5407 28.2064 22.5407 28.0522C22.53 27.6094 22.5641 27.2103 22.642 26.855C22.7199 26.4998 22.8086 26.2319 22.9078 26.0516C23.007 25.8714 23.119 25.7193 23.2435 25.5961C23.3684 25.4725 23.4573 25.3977 23.5095 25.3719C23.5614 25.346 23.6028 25.3284 23.634 25.3179C23.884 25.2355 24.1781 25.3153 24.5168 25.5575C24.8553 25.7996 25.1728 26.0984 25.4697 26.4536C25.7665 26.8092 26.1231 27.208 26.5396 27.6509C26.9563 28.0938 27.3206 28.4231 27.6329 28.6397L27.9452 28.8251C28.1537 28.9488 28.4245 29.0621 28.7578 29.1651C29.0905 29.268 29.382 29.2938 29.6322 29.2423L33.6307 29.1807C34.0262 29.1807 34.334 29.1159 34.5523 28.9874C34.771 28.8586 34.9009 28.7168 34.9428 28.5625C34.9846 28.4081 34.9869 28.2329 34.9508 28.037C34.9137 27.8416 34.8772 27.7049 34.8409 27.6277Z" fill="white"/>
<rect x="0.5" y="0.5" width="39" height="39" rx="5.5" stroke="white"/>
</svg>
