<svg width="40" height="40" viewBox="0 0 40 40" fill="none" xmlns="http://www.w3.org/2000/svg">
<rect x="0.5" y="0.5" width="39" height="39" rx="5.5" stroke="white"/>
<path d="M29.2615 10H10.7385C9.48174 10 8.2765 10.5151 7.38786 11.4319C6.49923 12.3488 6 13.5923 6 14.8889V25.1111C6 26.4077 6.49923 27.6512 7.38786 28.5681C8.2765 29.4849 9.48174 30 10.7385 30H29.2615C30.5183 30 31.7235 29.4849 32.6121 28.5681C33.5008 27.6512 34 26.4077 34 25.1111V14.8889C34 13.5923 33.5008 12.3488 32.6121 11.4319C31.7235 10.5151 30.5183 10 29.2615 10ZM21.1846 22.2222L16.9846 24.4444V15.5556L21.1846 17.7778L25.3846 20L21.1846 22.2222Z" fill="white"/>
</svg>
