<svg width="40" height="40" viewBox="0 0 40 40" fill="none" xmlns="http://www.w3.org/2000/svg">
<path d="M16.821 12.648C16.821 13.2528 16.821 15.9523 16.821 15.9523H14.4001V19.9929H16.821V31.9999H21.7939V19.9932H25.131C25.131 19.9932 25.4435 18.0558 25.595 15.9374C25.1607 15.9374 21.8127 15.9374 21.8127 15.9374C21.8127 15.9374 21.8127 13.5868 21.8127 13.1748C21.8127 12.7618 22.3549 12.2064 22.8908 12.2064C23.4257 12.2064 24.5547 12.2064 25.6003 12.2064C25.6003 11.6563 25.6003 9.7555 25.6003 8C24.2044 8 22.6164 8 21.9164 8C16.6981 7.99972 16.821 12.0443 16.821 12.648Z" fill="white"/>
<rect x="0.5" y="0.5" width="39" height="39" rx="5.5" stroke="white"/>
</svg>
