<svg width="40" height="40" viewBox="0 0 40 40" fill="none" xmlns="http://www.w3.org/2000/svg">
<rect x="0.5" y="0.5" width="39" height="39" rx="5.5" stroke="white"/>
<g clip-path="url(#clip0)">
<path fill-rule="evenodd" clip-rule="evenodd" d="M19.9951 7.02319C16.4656 7.02319 16.023 7.03815 14.6369 7.1014C13.2536 7.16454 12.3089 7.3842 11.4822 7.70549C10.6276 8.03761 9.90284 8.48198 9.18036 9.20446C8.45788 9.92694 8.01351 10.6517 7.68139 11.5063C7.3601 12.3329 7.14044 13.2776 7.0773 14.6609C7.01405 16.0471 6.99915 16.4896 6.99915 20.0191C6.99915 23.5486 7.01405 23.9911 7.0773 25.3773C7.14044 26.7606 7.3601 27.7053 7.68139 28.5319C8.01351 29.3865 8.45788 30.1113 9.18036 30.8338C9.90284 31.5563 10.6276 32.0006 11.4822 32.3328C12.3089 32.654 13.2536 32.8737 14.6369 32.9368C16.023 33 16.4656 33.015 19.9951 33.015C23.5245 33.015 23.9671 33 25.3533 32.9368C26.7365 32.8737 27.6812 32.654 28.5079 32.3328C29.3625 32.0006 30.0872 31.5563 30.8097 30.8338C31.5322 30.1113 31.9766 29.3865 32.3087 28.5319C32.63 27.7053 32.8497 26.7606 32.9128 25.3773C32.976 23.9911 32.991 23.5486 32.991 20.0191C32.991 16.4896 32.976 16.0471 32.9128 14.6609C32.8497 13.2776 32.63 12.3329 32.3087 11.5063C31.9766 10.6517 31.5322 9.92694 30.8097 9.20446C30.0872 8.48198 29.3625 8.03761 28.5079 7.70549C27.6812 7.3842 26.7365 7.16454 25.3533 7.1014C23.9671 7.03815 23.5245 7.02319 19.9951 7.02319ZM19.9696 24.3526C17.5771 24.3526 15.6376 22.4131 15.6376 20.0207C15.6376 17.6282 17.5771 15.6887 19.9696 15.6887C22.3621 15.6887 24.3015 17.6282 24.3015 20.0207C24.3015 22.4131 22.3621 24.3526 19.9696 24.3526ZM19.9696 13.3471C16.2838 13.3471 13.296 16.3349 13.296 20.0207C13.296 23.7064 16.2838 26.6942 19.9696 26.6942C23.6553 26.6942 26.6431 23.7064 26.6431 20.0207C26.6431 16.3349 23.6553 13.3471 19.9696 13.3471ZM26.9409 14.6434C27.8022 14.6434 28.5004 13.9452 28.5004 13.0839C28.5004 12.2226 27.8022 11.5245 26.9409 11.5245C26.0796 11.5245 25.3814 12.2226 25.3814 13.0839C25.3814 13.9452 26.0796 14.6434 26.9409 14.6434Z" fill="white"/>
</g>
<defs>
<clipPath id="clip0">
<rect x="6.99915" y="7.00024" width="26" height="26" fill="white"/>
</clipPath>
</defs>
</svg>
