<?xml version="1.0" encoding="UTF-8"?>
<svg width="230px" height="31px" viewBox="0 0 230 31" version="1.1" xmlns="http://www.w3.org/2000/svg" xmlns:xlink="http://www.w3.org/1999/xlink">
    <!-- Generator: Sketch 61.2 (89653) - https://sketch.com -->
    <title>logo</title>
    <desc>Created with Sketch.</desc>
    <g id="Page-1" stroke="none" stroke-width="1" fill="none" fill-rule="evenodd">
        <g id="logo" fill="#FFFFFF" fill-rule="nonzero">
            <path d="M15.2561,2.20692 L6.63669,2.20692 C6.47146,2.20692 6.41638,2.15174 6.41638,1.98623 L6.41638,0 L0,0 L0,8.27594 C0,8.52422 0.137691,8.63457 0.413072,8.63457 L3.41473,8.63457 L11.208,30.3451 L15.2561,30.3451 L19.3318,30.3451 L27.0975,8.63457 L30.1267,8.63457 C30.4021,8.63457 30.5398,8.52422 30.5398,8.27594 L30.5398,0 L24.1234,0 L24.1234,1.98623 C24.1234,2.15174 24.0408,2.20692 23.8756,2.20692 L15.2561,2.20692 Z M15.2561,21.9588 C15.0909,21.9588 14.9532,21.8485 14.8981,21.6554 L10.437,9.15871 C10.3819,9.02078 10.3819,8.91043 10.4645,8.80008 C10.5471,8.68974 10.6573,8.63457 10.7949,8.63457 L15.2561,8.63457 L19.7448,8.63457 C19.8825,8.63457 19.9651,8.68974 20.0478,8.80008 C20.1304,8.91043 20.1579,9.02078 20.1028,9.15871 L15.6417,21.6554 C15.5866,21.8485 15.4489,21.9588 15.2561,21.9588 Z" id="Shape"></path>
            <path d="M41.3619,2.07129 L41.3619,16.8296 C41.3619,16.8847 41.3619,16.9123 41.3894,16.9399 C41.417,16.9399 41.4445,16.9123 41.472,16.8571 L51.4684,2.07129 L57.3065,2.07129 L57.3065,30.3465 L50.8625,30.3465 L50.8625,14.7331 C50.8625,14.6779 50.8625,14.6503 50.835,14.6227 C50.8075,14.6227 50.7799,14.6227 50.7524,14.6779 L40.6459,30.3465 L34.918,30.3465 L34.918,2.07129 L41.3619,2.07129 Z" id="Path"></path>
            <path d="M90.6024,30.2902 L83.7454,30.2902 L76.8058,11.0083 C76.7507,10.8152 76.6405,10.7325 76.4202,10.7325 C76.2275,10.7325 76.0898,10.8152 76.0622,11.0083 L69.1226,30.2902 L62.2656,30.2902 L72.4272,2.01562 L80.4408,2.01562 L90.6024,30.2902 Z" id="Path"></path>
            <path d="M101.478,8.60897 C101.257,8.60897 101.147,8.69173 101.147,8.91241 L101.147,13.9053 C101.147,14.1536 101.257,14.2639 101.478,14.2639 L114.586,14.2639 L114.586,20.6913 L101.478,20.6913 C101.257,20.6913 101.147,20.8016 101.147,21.0499 L101.147,23.5325 C101.147,23.7532 101.257,23.836 101.478,23.836 L117.67,23.836 L117.67,30.2909 L94.7032,30.2909 L94.7032,2.07129 L117.67,2.07129 L117.67,8.60897 L101.478,8.60897 Z" id="Path"></path>
            <path d="M146.836,2.07129 L146.836,8.52631 L137.914,8.52631 C137.721,8.52631 137.611,8.60906 137.611,8.80216 L137.611,30.3465 L131.167,30.3465 L131.167,8.80216 C131.167,8.60906 131.084,8.52631 130.891,8.52631 L121.914,8.52631 L121.914,2.07129 L146.836,2.07129 Z" id="Path"></path>
            <path d="M174.699,30.3465 L167.87,30.3465 L166.823,27.4776 C166.768,27.2845 166.63,27.2017 166.438,27.2017 L154.293,27.2017 C154.128,27.2017 153.99,27.2845 153.935,27.4776 L152.916,30.3465 L146.059,30.3465 L156.221,2.07129 L164.565,2.07129 L174.699,30.3465 Z M156.551,20.2226 C156.496,20.3605 156.496,20.4708 156.579,20.5812 C156.662,20.6915 156.772,20.7467 156.909,20.7467 L163.876,20.7467 C164.207,20.7467 164.345,20.5536 164.234,20.2226 L160.765,10.54 C160.682,10.347 160.544,10.2642 160.379,10.2642 C160.186,10.2642 160.049,10.347 159.994,10.54 L156.551,20.2226 Z" id="Shape"></path>
            <path d="M200.7,2.07129 L200.7,30.3465 L194.256,30.3465 L194.256,21.1605 C194.256,20.9122 194.146,20.7743 193.87,20.7743 L185.333,20.7743 C185.086,20.7743 184.975,20.9122 184.975,21.1605 L184.975,30.3465 L178.504,30.3465 L178.504,2.07129 L184.975,2.07129 L184.975,13.9055 C184.975,14.1813 185.086,14.3193 185.333,14.3193 L193.87,14.3193 C194.146,14.3193 194.256,14.1813 194.256,13.9055 L194.256,2.07129 L200.7,2.07129 Z" id="Path"></path>
            <path d="M230,2.07129 L230,8.52631 L221.05,8.52631 C220.858,8.52631 220.775,8.60906 220.775,8.80216 L220.775,30.3465 L214.331,30.3465 L214.331,8.80216 C214.331,8.60906 214.221,8.52631 214.028,8.52631 L205.051,8.52631 L205.051,2.07129 L230,2.07129 Z" id="Path"></path>
        </g>
    </g>
</svg>